{
.appVersion = "3343";
.formatVersion = 3;
DisplayStrings = (
Z,
"0",
"1",
"2",
"4",
T,
A,
S,
"5",
E,
"3",
"6",
"7",
B,
"8",
"9",
"9"
);
axes = (
{
name = Alert;
tag = ALRT;
}
);
date = "2024-03-08 15:11:36 +0000";
familyName = Meerkat;
fontMaster = (
{
axesValues = (
0
);
id = m01;
metricValues = (
{
over = 16;
pos = 800;
},
{
over = 16;
pos = 700;
},
{
over = 16;
pos = 500;
},
{
over = -16;
},
{
over = -16;
pos = -200;
},
{
}
);
name = left;
},
{
axesValues = (
30
);
id = m002;
metricValues = (
{
over = 16;
pos = 800;
},
{
over = 16;
pos = 700;
},
{
over = 16;
pos = 500;
},
{
over = -16;
},
{
over = -16;
pos = -200;
},
{
}
);
name = "r-1";
},
{
axesValues = (
50
);
id = m003;
metricValues = (
{
over = 16;
pos = 800;
},
{
over = 16;
pos = 700;
},
{
over = 16;
pos = 500;
},
{
over = -16;
},
{
over = -16;
pos = -200;
},
{
}
);
name = "r-2";
},
{
axesValues = (
100
);
id = m004;
metricValues = (
{
over = 16;
pos = 800;
},
{
over = 16;
pos = 700;
},
{
over = 16;
pos = 500;
},
{
over = -16;
},
{
over = -16;
pos = -200;
},
{
}
);
name = r;
}
);
glyphs = (
{
glyphname = A;
lastChange = "2025-10-03 16:06:16 +0000";
layers = (
{
layerId = m01;
shapes = (
{
closed = 1;
nodes = (
(86,0,l),
(275,500,l),
(274,495,l),
(167,0,l),
(600,0,l),
(596,21,l),
(539,32,l),
(492,515,l),
(76,700,l),
(50,32,l),
(4,21,l),
(0,0,l)
);
},
{
closed = 1;
nodes = (
(211,204,l),
(205,178,l),
(153,178,l),
(163,204,l)
);
}
);
width = 600;
},
{
layerId = m002;
shapes = (
{
closed = 1;
nodes = (
(96,0,l),
(275,170,l),
(274,165,l),
(177,0,l),
(600,0,l),
(596,21,l),
(539,22,l),
(492,185,l),
(76,370,l),
(50,22,l),
(4,21,l),
(0,0,l)
);
},
{
closed = 1;
nodes = (
(223,78,l),
(213,61,l),
(163,64,l),
(177,77,l)
);
}
);
width = 600;
},
{
layerId = m003;
shapes = (
{
closed = 1;
nodes = (
(256,0,l),
(208,220,l),
(250,230,l),
(337,0,l),
(600,0,l),
(596,21,l),
(539,22,l),
(492,285,l),
(76,190,l),
(50,22,l),
(4,21,l),
(0,0,l)
);
},
{
closed = 1;
nodes = (
(309,75,l),
(315,58,l),
(244,56,l),
(240,74,l)
);
}
);
width = 600;
},
{
layerId = m004;
shapes = (
{
closed = 1;
nodes = (
(376,0,l),
(439,539,l),
(464,528,l),
(497,0,l),
(600,0,l),
(596,21,l),
(539,32,l),
(492,515,l),
(76,700,l),
(50,32,l),
(4,21,l),
(0,0,l)
);
},
{
closed = 1;
nodes = (
(485,195,l),
(486,179,l),
(397,178,l),
(399,194,l)
);
}
);
width = 600;
}
);
unicode = (65,97);
},
{
glyphname = B;
lastChange = "2025-10-03 16:06:16 +0000";
layers = (
{
layerId = m01;
shapes = (
{
closed = 1;
nodes = (
(73,683,l),
(99,681,l),
(42,26,l),
(10,20,l),
(3,0,l),
(269,0,l),
(264,20,l),
(230,26,l),
(303,313,l),
(510,396,l),
(524,468,l),
(541,581,l),
(390,700,l),
(58,700,l)
);
},
{
closed = 1;
nodes = (
(446,546,l),
(338,390,l),
(337,388,l),
(376,567,l)
);
},
{
closed = 1;
nodes = (
(273,0,l),
(565,26,l),
(603,261,l),
(539,362,l),
(450,380,l),
(303,313,l),
(246,93,l),
(223,0,l)
);
},
{
closed = 1;
nodes = (
(488,272,l),
(318,90,l),
(316,88,l),
(376,317,l)
);
}
);
width = 600;
},
{
layerId = m002;
shapes = (
{
closed = 1;
nodes = (
(78,298,l),
(104,296,l),
(42,26,l),
(10,20,l),
(3,0,l),
(269,0,l),
(264,20,l),
(230,26,l),
(264,150,l),
(404,188,l),
(442,272,l),
(404,357,l),
(239,370,l),
(63,315,l)
);
},
{
closed = 1;
nodes = (
(356,273,l),
(329,211,l),
(328,209,l),
(284,315,l)
);
},
{
closed = 1;
nodes = (
(273,0,l),
(480,0,l),
(554,72,l),
(523,193,l),
(416,224,l),
(264,150,l),
(246,86,l),
(223,0,l)
);
},
{
closed = 1;
nodes = (
(374,175,l),
(375,21,l),
(375,17,l),
(299,141,l)
);
}
);
width = 600;
},
{
layerId = m003;
shapes = (
{
closed = 1;
nodes = (
(233,231,l),
(271,228,l),
(182,26,l),
(150,20,l),
(143,0,l),
(269,0,l),
(264,20,l),
(230,26,l),
(303,103,l),
(427,170,l),
(442,201,l),
(451,231,l),
(352,285,l),
(218,260,l)
);
},
{
closed = 1;
nodes = (
(355,243,l),
(410,171,l),
(362,142,l),
(335,243,l)
);
},
{
closed = 1;
nodes = (
(273,0,l),
(465,6,l),
(503,81,l),
(469,152,l),
(427,170,l),
(303,103,l),
(246,73,l),
(223,0,l)
);
},
{
closed = 1;
nodes = (
(352,121,l),
(404,3,l),
(359,2,l),
(341,101,l)
);
}
);
width = 600;
},
{
layerId = m004;
shapes = (
{
closed = 1;
nodes = (
(73,683,l),
(99,681,l),
(42,26,l),
(10,20,l),
(3,0,l),
(269,0,l),
(264,20,l),
(230,26,l),
(303,313,l),
(510,396,l),
(524,468,l),
(541,581,l),
(390,700,l),
(58,700,l)
);
},
{
closed = 1;
nodes = (
(436,664,l),
(425,373,l),
(373,351,l),
(402,690,l)
);
},
{
closed = 1;
nodes = (
(273,0,l),
(565,26,l),
(603,261,l),
(539,362,l),
(458,375,l),
(303,313,l),
(246,93,l),
(223,0,l)
);
},
{
closed = 1;
nodes = (
(378,334,l),
(430,14,l),
(385,11,l),
(350,324,l)
);
}
);
width = 600;
}
);
unicode = (66,98);
},
{
glyphname = C;
lastChange = "2025-10-03 16:06:16 +0000";
layers = (
{
layerId = m01;
shapes = (
{
closed = 1;
nodes = (
(-2,499,l),
(-1,139,l),
(192,3,l),
(536,81,l),
(524,514,l),
(455,633,l),
(138,699,l)
);
},
{
closed = 1;
nodes = (
(530,296,l),
(327,82,l),
(329,89,l),
(438,534,l),
(443,540,l),
(525,478,l)
);
}
);
width = 600;
},
{
layerId = m002;
shapes = (
{
closed = 1;
nodes = (
(48,239,l),
(49,139,l),
(192,3,l),
(536,81,l),
(524,274,l),
(455,353,l),
(138,370,l)
);
},
{
closed = 1;
nodes = (
(534,120,l),
(334,67,l),
(336,74,l),
(269,299,l),
(271,305,l),
(529,187,l)
);
}
);
width = 600;
},
{
layerId = m003;
shapes = (
{
closed = 1;
nodes = (
(58,219,l),
(59,139,l),
(192,3,l),
(515,57,l),
(524,234,l),
(465,283,l),
(138,339,l)
);
},
{
closed = 1;
nodes = (
(517,94,l),
(340,27,l),
(296,20,l),
(258,318,l),
(367,302,l),
(520,158,l)
);
}
);
width = 600;
},
{
layerId = m004;
shapes = (
{
closed = 1;
nodes = (
(-2,499,l),
(-1,139,l),
(192,3,l),
(536,81,l),
(524,514,l),
(455,613,l),
(138,679,l)
);
},
{
closed = 1;
nodes = (
(532,239,l),
(469,65,l),
(421,55,l),
(192,668,l),
(222,662,l),
(527,403,l)
);
}
);
width = 600;
}
);
unicode = (67,99);
},
{
glyphname = D;
lastChange = "2025-10-03 16:06:16 +0000";
layers = (
{
layerId = m01;
shapes = (
{
closed = 1;
nodes = (
(73,683,l),
(99,681,l),
(42,26,l),
(10,20,l),
(3,0,l),
(410,0,l),
(596,254,l),
(541,581,l),
(390,700,l),
(58,700,l)
);
},
{
closed = 1;
nodes = (
(415,598,l),
(180,0,l),
(179,-2,l),
(345,619,l)
);
}
);
width = 600;
},
{
layerId = m002;
shapes = (
{
closed = 1;
nodes = (
(73,353,l),
(99,351,l),
(42,26,l),
(10,20,l),
(3,0,l),
(410,0,l),
(476,174,l),
(471,221,l),
(390,370,l),
(58,370,l)
);
},
{
closed = 1;
nodes = (
(329,232,l),
(238,33,l),
(237,31,l),
(248,221,l)
);
}
);
width = 600;
},
{
layerId = m003;
shapes = (
{
closed = 1;
nodes = (
(123,273,l),
(149,271,l),
(82,26,l),
(50,20,l),
(43,0,l),
(410,0,l),
(526,44,l),
(541,171,l),
(390,290,l),
(108,290,l)
);
},
{
closed = 1;
nodes = (
(344,290,l),
(368,0,l),
(302,0,l),
(302,290,l)
);
}
);
width = 600;
},
{
layerId = m004;
shapes = (
{
closed = 1;
nodes = (
(73,683,l),
(99,681,l),
(42,26,l),
(10,20,l),
(3,0,l),
(410,0,l),
(596,254,l),
(541,581,l),
(390,700,l),
(58,700,l)
);
},
{
closed = 1;
nodes = (
(479,630,l),
(543,182,l),
(487,105,l),
(447,655,l)
);
}
);
width = 600;
}
);
unicode = (68,100);
},
{
glyphname = E;
lastChange = "2025-10-03 16:06:16 +0000";
layers = (
{
layerId = m01;
shapes = (
{
closed = 1;
nodes = (
(65,0,l),
(493,-1,l),
(532,101,l),
(209,101,l),
(264,275,l),
(429,225,l),
(476,313,l),
(295,374,l),
(315,417,l),
(489,363,l),
(583,525,l),
(125,700,l),
(119,32,l),
(73,21,l)
);
}
);
width = 600;
},
{
layerId = m002;
shapes = (
{
closed = 1;
nodes = (
(65,0,l),
(493,-1,l),
(498,36,l),
(236,49,l),
(264,116,l),
(405,95,l),
(418,135,l),
(280,166,l),
(324,278,l),
(449,224,l),
(474,319,l),
(82,370,l),
(113,32,l),
(73,21,l)
);
}
);
width = 600;
},
{
layerId = m003;
shapes = (
{
closed = 1;
nodes = (
(88,0,l),
(566,-2,l),
(532,42,l),
(351,51,l),
(342,89,l),
(528,79,l),
(506,127,l),
(342,130,l),
(339,189,l),
(481,190,l),
(468,246,l),
(122,280,l),
(142,32,l),
(96,21,l)
);
}
);
width = 600;
},
{
layerId = m004;
shapes = (
{
closed = 1;
nodes = (
(8,0,l),
(528,1,l),
(498,35,l),
(438,40,l),
(388,327,l),
(528,327,l),
(516,365,l),
(374,373,l),
(339,584,l),
(481,586,l),
(468,622,l),
(42,700,l),
(62,32,l),
(16,21,l)
);
}
);
width = 600;
}
);
unicode = (69,101);
},
{
glyphname = F;
lastChange = "2025-10-03 16:06:16 +0000";
layers = (
{
layerId = m01;
shapes = (
{
closed = 1;
nodes = (
(86,0,l),
(232,385,l),
(451,345,l),
(492,515,l),
(76,700,l),
(50,32,l),
(4,21,l),
(0,0,l)
);
},
{
closed = 1;
nodes = (
(323,204,l),
(317,178,l),
(153,178,l),
(163,204,l)
);
}
);
width = 600;
},
{
layerId = m002;
shapes = (
{
closed = 1;
nodes = (
(86,0,l),
(202,225,l),
(331,192,l),
(362,255,l),
(86,370,l),
(50,32,l),
(4,21,l),
(0,0,l)
);
},
{
closed = 1;
nodes = (
(251,164,l),
(245,138,l),
(159,142,l),
(172,168,l)
);
}
);
width = 600;
},
{
layerId = m003;
shapes = (
{
closed = 1;
nodes = (
(276,0,l),
(257,182,l),
(372,179,l),
(390,243,l),
(76,280,l),
(50,32,l),
(4,21,l),
(0,0,l)
);
},
{
closed = 1;
nodes = (
(346,131,l),
(338,102,l),
(265,101,l),
(262,131,l)
);
}
);
width = 600;
},
{
layerId = m004;
shapes = (
{
closed = 1;
nodes = (
(343,0,l),
(257,593,l),
(458,596,l),
(471,651,l),
(76,700,l),
(50,32,l),
(4,21,l),
(0,0,l)
);
},
{
closed = 1;
nodes = (
(433,430,l),
(427,404,l),
(285,401,l),
(280,434,l)
);
}
);
width = 600;
}
);
unicode = (70,102);
},
{
glyphname = G;
lastChange = "2025-10-03 16:06:16 +0000";
layers = (
{
layerId = m01;
shapes = (
{
closed = 1;
nodes = (
(-2,499,l),
(-1,139,l),
(192,3,l),
(536,81,l),
(524,514,l),
(455,633,l),
(138,699,l)
);
},
{
closed = 1;
nodes = (
(533,199,l),
(322,82,l),
(324,89,l),
(436,534,l),
(438,540,l),
(525,475,l)
);
},
{
closed = 1;
nodes = (
(438,348,l),
(520,359,l),
(599,236,l),
(473,166,l)
);
}
);
width = 600;
},
{
layerId = m002;
shapes = (
{
closed = 1;
nodes = (
(118,291,l),
(79,139,l),
(192,3,l),
(506,31,l),
(527,264,l),
(455,323,l),
(228,370,l)
);
},
{
closed = 1;
nodes = (
(513,111,l),
(335,34,l),
(337,41,l),
(257,295,l),
(259,301,l),
(523,216,l)
);
},
{
closed = 1;
nodes = (
(409,136,l),
(491,147,l),
(513,111,l),
(446,82,l)
);
}
);
width = 600;
},
{
layerId = m003;
shapes = (
{
closed = 1;
nodes = (
(76,152,l),
(165,49,l),
(271,0,l),
(536,81,l),
(524,274,l),
(455,343,l),
(189,316,l)
);
},
{
closed = 1;
nodes = (
(531,167,l),
(456,57,l),
(391,37,l),
(302,327,l),
(348,332,l),
(527,230,l)
);
},
{
closed = 1;
nodes = (
(440,161,l),
(522,192,l),
(531,167,l),
(485,99,l)
);
}
);
width = 600;
},
{
layerId = m004;
shapes = (
{
closed = 1;
nodes = (
(-2,499,l),
(-1,139,l),
(192,3,l),
(536,81,l),
(524,514,l),
(455,633,l),
(138,699,l)
);
},
{
closed = 1;
nodes = (
(530,299,l),
(391,49,l),
(391,49,l),
(181,690,l),
(232,679,l),
(525,475,l)
);
},
{
closed = 1;
nodes = (
(396,238,l),
(529,345,l),
(530,299,l),
(439,135,l)
);
}
);
width = 600;
}
);
unicode = (71,103);
},
{
glyphname = H;
lastChange = "2025-10-03 16:06:16 +0000";
layers = (
{
layerId = m01;
shapes = (
{
closed = 1;
nodes = (
(86,0,l),
(0,0,l),
(4,21,l),
(50,32,l),
(92,642,l),
(63,664,l),
(56,700,l),
(298,597,l),
(107,0,l)
);
},
{
closed = 1;
nodes = (
(344,577,l),
(515,499,l),
(507,476,l),
(477,478,l),
(539,32,l),
(596,21,l),
(600,0,l),
(234,0,l)
);
},
{
closed = 1;
nodes = (
(195,275,l),
(286,273,l),
(289,290,l),
(201,293,l)
);
}
);
width = 600;
},
{
layerId = m002;
shapes = (
{
closed = 1;
nodes = (
(86,0,l),
(0,0,l),
(4,21,l),
(50,32,l),
(92,340.653,l),
(63,351.784,l),
(56,370,l),
(298,267,l),
(207,0,l)
);
},
{
closed = 1;
nodes = (
(334,247,l),
(515,169,l),
(507,146,l),
(477,148,l),
(539,32,l),
(596,21,l),
(600,0,l),
(304,0,l)
);
},
{
closed = 1;
nodes = (
(254,138,l),
(321,139,l),
(323,155,l),
(259,154,l)
);
}
);
width = 600;
},
{
layerId = m003;
shapes = (
{
closed = 1;
nodes = (
(86,0,l),
(0,0,l),
(4,21,l),
(50,32,l),
(120,139,l),
(79,134,l),
(60,153,l),
(318,267,l),
(277,0,l)
);
},
{
closed = 1;
nodes = (
(394,287,l),
(522,321,l),
(519,296,l),
(496,284,l),
(539,32,l),
(596,21,l),
(600,0,l),
(354,0,l)
);
},
{
closed = 1;
nodes = (
(287,68,l),
(363,68,l),
(367,94,l),
(292,94,l)
);
}
);
width = 600;
},
{
layerId = m004;
shapes = (
{
closed = 1;
nodes = (
(86,0,l),
(0,0,l),
(4,21,l),
(50,32,l),
(120,559,l),
(79,554,l),
(60,573,l),
(336,645,l),
(394,0,l)
);
},
{
closed = 1;
nodes = (
(404,667,l),
(522,701,l),
(519,676,l),
(496,664,l),
(539,32,l),
(596,21,l),
(600,0,l),
(504,0,l)
);
},
{
closed = 1;
nodes = (
(380,159,l),
(480,159,l),
(476,186,l),
(378,186,l)
);
}
);
width = 600;
}
);
unicode = (72,104);
},
{
glyphname = I;
lastChange = "2025-10-03 16:06:16 +0000";
layers = (
{
layerId = m01;
shapes = (
{
closed = 1;
nodes = (
(132,39,l),
(185,651,l),
(159,675,l),
(153,700,l),
(417,570,l),
(408,545,l),
(384,541,l),
(267,39,l),
(315,25,l),
(324,0,l),
(65,0,l),
(78,25,l)
);
}
);
width = 600;
},
{
layerId = m002;
shapes = (
{
closed = 1;
nodes = (
(132,39,l),
(265,341,l),
(239,345,l),
(233,370,l),
(357,370,l),
(348,345,l),
(324,341,l),
(267,39,l),
(315,25,l),
(324,0,l),
(65,0,l),
(78,25,l)
);
}
);
width = 600;
},
{
layerId = m003;
shapes = (
{
closed = 1;
nodes = (
(352,39,l),
(185,256,l),
(159,260,l),
(153,285,l),
(457,285,l),
(448,260,l),
(424,256,l),
(487,39,l),
(535,25,l),
(544,0,l),
(285,0,l),
(298,25,l)
);
}
);
width = 600;
},
{
layerId = m004;
shapes = (
{
closed = 1;
nodes = (
(122,39,l),
(235,611,l),
(209,615,l),
(203,640,l),
(447,700,l),
(453,669,l),
(424,641,l),
(487,39,l),
(535,25,l),
(544,0,l),
(55,0,l),
(68,25,l)
);
}
);
width = 600;
}
);
unicode = (73,105);
},
{
glyphname = J;
lastChange = "2025-10-03 16:06:16 +0000";
layers = (
{
layerId = m01;
shapes = (
{
closed = 1;
nodes = (
(113,176,l),
(363,73,l),
(363,109,l),
(363,654,l),
(337,678,l),
(331,703,l),
(595,573,l),
(586,548,l),
(562,544,l),
(493,182,l),
(469,56,l),
(310,0,l),
(7,0,l),
(81,189,l)
);
}
);
width = 600;
},
{
layerId = m002;
shapes = (
{
closed = 1;
nodes = (
(136,150,l),
(251,56,l),
(266,90,l),
(364,308,l),
(327,335,l),
(321,370,l),
(535,308,l),
(526,268,l),
(502,264,l),
(469,56,l),
(469,56,l),
(310,0,l),
(7,0,l),
(81,189,l)
);
}
);
width = 600;
},
{
layerId = m003;
shapes = (
{
closed = 1;
nodes = (
(194,127,l),
(166,0,l),
(239,0,l),
(246,18,l),
(342,252,l),
(249,262,l),
(264,311,l),
(541,304,l),
(505,195,l),
(537,64,l),
(495,0,l),
(310,0,l),
(62,0,l),
(122,127,l)
);
}
);
width = 600;
},
{
layerId = m004;
shapes = (
{
closed = 1;
nodes = (
(180,189,l),
(152,0,l),
(208,0,l),
(255,574,l),
(156,555,l),
(117,613,l),
(563,700,l),
(594,660,l),
(499,633,l),
(594,107,l),
(495,0,l),
(310,0,l),
(7,0,l),
(81,189,l)
);
}
);
width = 600;
}
);
unicode = (74,106);
},
{
glyphname = K;
lastChange = "2025-10-03 16:06:16 +0000";
layers = (
{
layerId = m01;
shapes = (
{
closed = 1;
nodes = (
(86,0,l),
(0,0,l),
(4,21,l),
(50,32,l),
(92,642,l),
(63,664,l),
(56,700,l),
(298,597,l),
(107,0,l)
);
},
{
closed = 1;
nodes = (
(209,280,l),
(231,350,l),
(470,0,l),
(326,0,l)
);
},
{
closed = 1;
nodes = (
(451,384,l),
(355,284,l),
(242,383,l),
(254,422,l)
);
}
);
width = 600;
},
{
layerId = m002;
shapes = (
{
closed = 1;
nodes = (
(137,0,l),
(0,0,l),
(4,21,l),
(50,32,l),
(84,295,l),
(35,332,l),
(28,370,l),
(270,295,l),
(158,0,l)
);
},
{
closed = 1;
nodes = (
(206,85,l),
(228,155,l),
(382,-1,l),
(238,-1,l)
);
},
{
closed = 1;
nodes = (
(370,196,l),
(301,124,l),
(240,177,l),
(252,216,l)
);
}
);
width = 600;
},
{
layerId = m003;
shapes = (
{
closed = 1;
nodes = (
(86,0,l),
(0,0,l),
(4,21,l),
(50,32,l),
(85,219,l),
(56,241,l),
(49,277,l),
(300,280,l),
(348,0,l)
);
},
{
closed = 1;
nodes = (
(354,99,l),
(415,115,l),
(554,3,l),
(458,3,l)
);
},
{
closed = 1;
nodes = (
(456,214,l),
(480,158,l),
(344,118,l),
(330,172,l)
);
}
);
width = 600;
},
{
layerId = m004;
shapes = (
{
closed = 1;
nodes = (
(86,0,l),
(0,0,l),
(4,21,l),
(50,32,l),
(85,539,l),
(56,561,l),
(49,597,l),
(370,691,l),
(418,0,l)
);
},
{
closed = 1;
nodes = (
(400,396,l),
(461,412,l),
(600,0,l),
(504,0,l)
);
},
{
closed = 1;
nodes = (
(520,512,l),
(544,456,l),
(408,416,l),
(394,470,l)
);
}
);
width = 600;
}
);
unicode = (75,107);
},
{
glyphname = L;
lastChange = "2025-10-03 16:06:16 +0000";
layers = (
{
layerId = m01;
shapes = (
{
closed = 1;
nodes = (
(65,0,l),
(596,0,l),
(528,180,l),
(220,98,l),
(333,700,l),
(125,700,l),
(117,46,l),
(71,28,l)
);
}
);
width = 600;
},
{
layerId = m002;
shapes = (
{
closed = 1;
nodes = (
(65,0,l),
(522,0,l),
(490,97,l),
(241,69,l),
(323,334,l),
(125,370,l),
(117,46,l),
(71,28,l)
);
}
);
width = 600;
},
{
layerId = m003;
shapes = (
{
closed = 1;
nodes = (
(8,0,l),
(529,-1,l),
(475,95,l),
(284,55,l),
(256,199,l),
(62,280,l),
(62,32,l),
(16,21,l)
);
}
);
width = 600;
},
{
layerId = m004;
shapes = (
{
closed = 1;
nodes = (
(8,0,l),
(599,-1,l),
(569,155,l),
(391,118,l),
(309,596,l),
(42,700,l),
(62,32,l),
(16,21,l)
);
}
);
width = 600;
}
);
unicode = (76,108);
},
{
glyphname = M;
lastChange = "2025-10-03 16:06:16 +0000";
layers = (
{
layerId = m01;
shapes = (
{
closed = 1;
nodes = (
(600,0,l),
(592,26,l),
(539,36,l),
(535,660,l),
(592,668,l),
(600,700,l),
(443,699,l),
(403,471,l),
(344,698,l),
(3,661,l),
(13,633,l),
(63,623,l),
(50,32,l),
(4,21,l),
(0,0,l),
(146,0,l),
(208,200,l),
(208,197,l),
(201,0,l),
(346,0,l),
(403,202,l),
(403,203,l),
(404,0,l)
);
}
);
width = 600;
},
{
layerId = m002;
shapes = (
{
closed = 1;
nodes = (
(580,0,l),
(572,26,l),
(519,36,l),
(515,330,l),
(572,338,l),
(580,370,l),
(443,369,l),
(343,171,l),
(344,348,l),
(54,370,l),
(63,343,l),
(113,333,l),
(100,32,l),
(54,21,l),
(50,0,l),
(146,0,l),
(278,180,l),
(278,177,l),
(201,0,l),
(346,0,l),
(483,132,l),
(483,133,l),
(404,0,l)
);
}
);
width = 600;
},
{
layerId = m003;
shapes = (
{
closed = 1;
nodes = (
(600,0,l),
(592,26,l),
(549,36,l),
(505,242,l),
(562,250,l),
(570,282,l),
(376,280,l),
(367,120,l),
(340,265,l),
(3,243,l),
(13,215,l),
(63,205,l),
(50,32,l),
(4,21,l),
(0,0,l),
(256,0,l),
(148,250,l),
(162,251,l),
(313,0,l),
(426,0,l),
(388,280,l),
(415,281,l),
(484,0,l)
);
}
);
width = 600;
},
{
layerId = m004;
shapes = (
{
closed = 1;
nodes = (
(600,0,l),
(592,26,l),
(549,36,l),
(505,660,l),
(562,668,l),
(570,700,l),
(376,698,l),
(367,540,l),
(340,683,l),
(3,661,l),
(13,633,l),
(63,623,l),
(50,32,l),
(4,21,l),
(0,0,l),
(256,0,l),
(298,680,l),
(312,681,l),
(313,0,l),
(426,0,l),
(426,698,l),
(453,699,l),
(484,0,l)
);
}
);
width = 600;
}
);
unicode = (77,109);
},
{
glyphname = N;
lastChange = "2025-10-03 16:06:16 +0000";
layers = (
{
layerId = m01;
shapes = (
{
closed = 1;
nodes = (
(146,0,l),
(218,271,l),
(218,268,l),
(201,0,l),
(600,0,l),
(535,660,l),
(592,668,l),
(600,700,l),
(433,699,l),
(441,308,l),
(374,698,l),
(3,621,l),
(50,32,l),
(4,21,l),
(0,0,l)
);
}
);
width = 600;
},
{
layerId = m002;
shapes = (
{
closed = 1;
nodes = (
(146,0,l),
(168,148,l),
(168,145,l),
(201,0,l),
(600,0,l),
(535,330,l),
(592,338,l),
(600,370,l),
(433,369,l),
(441,65,l),
(374,368,l),
(3,291,l),
(50,32,l),
(4,21,l),
(0,0,l)
);
}
);
width = 600;
},
{
layerId = m003;
shapes = (
{
closed = 1;
nodes = (
(246,0,l),
(227,253,l),
(257,249,l),
(301,0,l),
(600,0,l),
(535,220,l),
(592,228,l),
(600,260,l),
(433,259,l),
(487,65,l),
(374,234,l),
(3,281,l),
(50,32,l),
(4,21,l),
(0,0,l)
);
}
);
width = 600;
},
{
layerId = m004;
shapes = (
{
closed = 1;
nodes = (
(446,0,l),
(363,688,l),
(394,694,l),
(501,0,l),
(600,0,l),
(535,660,l),
(592,668,l),
(600,700,l),
(471,700,l),
(529,170,l),
(423,699,l),
(3,621,l),
(50,32,l),
(4,21,l),
(0,0,l)
);
}
);
width = 600;
}
);
unicode = (78,110);
},
{
glyphname = O;
lastChange = "2025-10-03 16:06:16 +0000";
layers = (
{
layerId = m01;
shapes = (
{
closed = 1;
nodes = (
(-2,499,l),
(-1,139,l),
(192,3,l),
(596,81,l),
(594,504,l),
(525,623,l),
(138,699,l)
);
},
{
closed = 1;
nodes = (
(213,57,l),
(213,57,l),
(298,532,l),
(377,504,l)
);
}
);
width = 600;
},
{
layerId = m002;
shapes = (
{
closed = 1;
nodes = (
(-2,219,l),
(-1,139,l),
(192,3,l),
(596,81,l),
(594,292.843,l),
(525,343,l),
(138,419,l)
);
},
{
closed = 1;
nodes = (
(292,57,l),
(292,57,l),
(184,321,l),
(263,289,l)
);
}
);
width = 600;
},
{
layerId = m003;
shapes = (
{
closed = 1;
nodes = (
(-2,249,l),
(-1,139,l),
(192,3,l),
(596,81,l),
(594,254,l),
(525,353,l),
(138,299,l)
);
},
{
closed = 1;
nodes = (
(427,48,l),
(397,43,l),
(349,328,l),
(422,339,l)
);
}
);
width = 600;
},
{
layerId = m004;
shapes = (
{
closed = 1;
nodes = (
(-2,499,l),
(-1,139,l),
(192,3,l),
(596,81,l),
(594,504,l),
(525,623,l),
(138,699,l)
);
},
{
closed = 1;
nodes = (
(518,66,l),
(435,50,l),
(415,645,l),
(451,638,l)
);
}
);
width = 600;
}
);
unicode = (79,111);
},
{
glyphname = P;
lastChange = "2025-10-03 16:06:16 +0000";
layers = (
{
layerId = m01;
shapes = (
{
closed = 1;
nodes = (
(42,26,l),
(10,20,l),
(3,0,l),
(309,0,l),
(304,20,l),
(270,26,l),
(283,183,l),
(431,167,l),
(573,309,l),
(590,542,l),
(390,700,l),
(95,702,l)
);
},
{
closed = 1;
nodes = (
(446,546,l),
(288,220,l),
(287,218,l),
(376,567,l)
);
}
);
width = 600;
},
{
layerId = m002;
shapes = (
{
closed = 1;
nodes = (
(117,16,l),
(102,14,l),
(92,0,l),
(319,0,l),
(312,11,l),
(291,15,l),
(263,93,l),
(401,77,l),
(533,142,l),
(533,268,l),
(308,370,l),
(6,312,l)
);
},
{
closed = 1;
nodes = (
(292,282,l),
(298,142,l),
(297,140,l),
(243,268,l)
);
}
);
width = 600;
},
{
layerId = m003;
shapes = (
{
closed = 1;
nodes = (
(165,21,l),
(141,10,l),
(142,0,l),
(331,0,l),
(331,13,l),
(312,18,l),
(333,93,l),
(451,77,l),
(528,129,l),
(517,258,l),
(300,295,l),
(95,242,l)
);
},
{
closed = 1;
nodes = (
(464,267,l),
(505,113,l),
(461,84,l),
(444,270,l)
);
}
);
width = 600;
},
{
layerId = m004;
shapes = (
{
closed = 1;
nodes = (
(102,26,l),
(71,20,l),
(63,0,l),
(339,0,l),
(334,20,l),
(300,26,l),
(277,170,l),
(540,233,l),
(599,370,l),
(561,636,l),
(390,700,l),
(95,702,l)
);
},
{
closed = 1;
nodes = (
(465,672,l),
(479,218,l),
(399,199,l),
(432,684,l)
);
}
);
width = 600;
}
);
unicode = (80,112);
},
{
glyphname = Q;
lastChange = "2025-10-03 16:06:16 +0000";
layers = (
{
layerId = m01;
shapes = (
{
closed = 1;
nodes = (
(-2,499,l),
(-1,146,l),
(183,14,l),
(596,88,l),
(594,504,l),
(525,623,l),
(138,699,l)
);
},
{
closed = 1;
nodes = (
(220,93,l),
(220,93,l),
(298,532,l),
(377,504,l)
);
},
{
closed = 1;
nodes = (
(355,-5,l),
(347,44,l),
(422,56,l),
(478,-6,l)
);
}
);
width = 600;
},
{
layerId = m002;
shapes = (
{
closed = 1;
nodes = (
(58,189,l),
(59,86,l),
(183,14,l),
(526,88,l),
(524,194,l),
(455,313,l),
(198,370,l)
);
},
{
closed = 1;
nodes = (
(289,68,l),
(289,68,l),
(289,314,l),
(355,285,l)
);
},
{
closed = 1;
nodes = (
(355,-5,l),
(345,49,l),
(416,64,l),
(478,-6,l)
);
}
);
width = 600;
},
{
layerId = m003;
shapes = (
{
closed = 1;
nodes = (
(68,139,l),
(69,139,l),
(192,3,l),
(576,81,l),
(574,149,l),
(485,209,l),
(138,285,l)
);
},
{
closed = 1;
nodes = (
(334,30,l),
(311,27,l),
(284,253,l),
(331,243,l)
);
},
{
closed = 1;
nodes = (
(409,0,l),
(417,49,l),
(445,54,l),
(485,0,l)
);
}
);
width = 600;
},
{
layerId = m004;
shapes = (
{
closed = 1;
nodes = (
(-2,499,l),
(-1,139,l),
(192,3,l),
(596,81,l),
(594,504,l),
(525,623,l),
(138,699,l)
);
},
{
closed = 1;
nodes = (
(463,55,l),
(379,39,l),
(359,656,l),
(395,649,l)
);
},
{
closed = 1;
nodes = (
(409,0,l),
(416,46,l),
(501,63,l),
(559,2,l)
);
}
);
width = 600;
}
);
unicode = (81,113);
},
{
glyphname = R;
lastChange = "2025-10-03 16:06:16 +0000";
layers = (
{
layerId = m01;
shapes = (
{
closed = 1;
nodes = (
(42,26,l),
(10,20,l),
(3,0,l),
(309,0,l),
(304,20,l),
(270,26,l),
(283,183,l),
(431,167,l),
(573,309,l),
(590,542,l),
(390,700,l),
(95,702,l)
);
},
{
closed = 1;
nodes = (
(446,546,l),
(288,220,l),
(287,218,l),
(376,567,l)
);
},
{
closed = 1;
nodes = (
(431,167,l),
(487,-1,l),
(334,1,l),
(329,178,l)
);
}
);
width = 600;
},
{
layerId = m002;
shapes = (
{
closed = 1;
nodes = (
(117,16,l),
(102,14,l),
(92,0,l),
(319,0,l),
(312,11,l),
(291,15,l),
(263,93,l),
(401,77,l),
(533,142,l),
(533,268,l),
(308,370,l),
(6,312,l)
);
},
{
closed = 1;
nodes = (
(292,282,l),
(298,142,l),
(297,140,l),
(243,268,l)
);
},
{
closed = 1;
nodes = (
(401,77,l),
(476,0,l),
(330,0,l),
(319,86,l)
);
}
);
width = 600;
},
{
layerId = m003;
shapes = (
{
closed = 1;
nodes = (
(165,21,l),
(141,10,l),
(142,0,l),
(331,0,l),
(331,13,l),
(312,18,l),
(333,93,l),
(451,77,l),
(528,129,l),
(517,258,l),
(300,295,l),
(95,242,l)
);
},
{
closed = 1;
nodes = (
(464,267,l),
(505,113,l),
(461,84,l),
(444,270,l)
);
},
{
closed = 1;
nodes = (
(454,74,l),
(522,2,l),
(383,0,l),
(370,88,l)
);
}
);
width = 600;
},
{
layerId = m004;
shapes = (
{
closed = 1;
nodes = (
(102,26,l),
(71,20,l),
(63,0,l),
(339,0,l),
(334,20,l),
(300,26,l),
(277,170,l),
(540,233,l),
(599,370,l),
(561,636,l),
(390,700,l),
(95,702,l)
);
},
{
closed = 1;
nodes = (
(465,672,l),
(479,218,l),
(399,199,l),
(432,684,l)
);
},
{
closed = 1;
nodes = (
(479,218,l),
(601,0,l),
(410,0,l),
(399,199,l)
);
}
);
width = 600;
}
);
unicode = (82,114);
},
{
glyphname = S;
lastChange = "2025-10-03 16:06:16 +0000";
layers = (
{
layerId = m01;
shapes = (
{
closed = 1;
nodes = (
(367,700,l),
(150,700,l),
(6,578,l),
(37,380,l),
(246,192,l),
(246,192,l),
(56,257,l),
(1,105,l),
(150,0,l),
(481,4,l),
(601,107,l),
(601,232,l),
(120,608,l),
(117,608,l),
(601,324,l),
(600,653,l)
);
}
);
width = 600;
},
{
layerId = m002;
shapes = (
{
closed = 1;
nodes = (
(421,353,l),
(211,386,l),
(42,295,l),
(42,225,l),
(211,109,l),
(192,116,l),
(41,150,l),
(41,65,l),
(150,0,l),
(481,4,l),
(541,67,l),
(541,142,l),
(317,274,l),
(314,274,l),
(536,201,l),
(536,276,l)
);
}
);
width = 600;
},
{
layerId = m003;
shapes = (
{
closed = 1;
nodes = (
(364,274,l),
(223,285,l),
(94,282,l),
(94,208,l),
(368,82,l),
(360,64,l),
(61,132,l),
(61,45,l),
(150,0,l),
(481,4,l),
(541,97,l),
(541,131,l),
(282,208,l),
(282,208,l),
(550,163,l),
(532,246,l)
);
}
);
width = 600;
},
{
layerId = m004;
shapes = (
{
closed = 1;
nodes = (
(346,710,l),
(77,700,l),
(1,525,l),
(50,292,l),
(515,70,l),
(496,31,l),
(1,192,l),
(1,105,l),
(150,0,l),
(481,0,l),
(582,209,l),
(450,423,l),
(33,373,l),
(29,391,l),
(481,484,l),
(539,681,l)
);
}
);
width = 600;
}
);
unicode = (83,115);
},
{
glyphname = T;
lastChange = "2025-10-03 16:06:16 +0000";
layers = (
{
layerId = m01;
shapes = (
{
closed = 1;
nodes = (
(65,0,l),
(350,0,l),
(333,35,l),
(237,55,l),
(360,458,l),
(563,416,l),
(594,591,l),
(3,700,l),
(35,500,l),
(173,467,l),
(117,46,l),
(71,28,l)
);
}
);
width = 600;
},
{
layerId = m002;
shapes = (
{
closed = 1;
nodes = (
(65,0,l),
(350,0,l),
(333,35,l),
(264,56,l),
(285,206,l),
(462,187,l),
(483,308,l),
(79,370,l),
(53,223,l),
(173,217,l),
(117,46,l),
(71,28,l)
);
}
);
width = 600;
},
{
layerId = m003;
shapes = (
{
closed = 1;
nodes = (
(65,0,l),
(465,0,l),
(448,35,l),
(362,41,l),
(387,175,l),
(491,177,l),
(527,266,l),
(35,280,l),
(65,175,l),
(188,175,l),
(123,41,l),
(71,28,l)
);
}
);
width = 600;
},
{
layerId = m004;
shapes = (
{
closed = 1;
nodes = (
(65,0,l),
(465,0,l),
(448,35,l),
(401,41,l),
(401,465,l),
(593,500,l),
(576,664,l),
(3,700,l),
(21,443,l),
(218,477,l),
(123,41,l),
(71,28,l)
);
}
);
width = 600;
}
);
unicode = (84,116);
},
{
glyphname = U;
lastChange = "2025-10-03 16:06:16 +0000";
layers = (
{
layerId = m01;
shapes = (
{
closed = 1;
nodes = (
(124,679,l),
(147,665,l),
(-2,313,l),
(104,0,l),
(506,0,l),
(576,247,l),
(552,527,l),
(446,609,l),
(468,609,l),
(477,629,l),
(121,700,l)
);
},
{
closed = 1;
nodes = (
(228,35,l),
(228,35,l),
(235,677,l),
(339,657,l)
);
}
);
width = 600;
},
{
layerId = m002;
shapes = (
{
closed = 1;
nodes = (
(104,380,l),
(104,357,l),
(130,349,l),
(28,93,l),
(104,0,l),
(506,0,l),
(546,107,l),
(451,285,l),
(479,280,l),
(487,296,l),
(138,369,l)
);
},
{
closed = 1;
nodes = (
(228,35,l),
(228,35,l),
(236,349,l),
(339,327,l)
);
}
);
width = 600;
},
{
layerId = m003;
shapes = (
{
closed = 1;
nodes = (
(132,374,l),
(137,371,l),
(71,202,l),
(189,0,l),
(506,0,l),
(552,84,l),
(530,180,l),
(449,304,l),
(463,304,l),
(468,311,l),
(129,383,l)
);
},
{
closed = 1;
nodes = (
(407,41,l),
(372,54,l),
(235,360,l),
(338,339,l)
);
}
);
width = 600;
},
{
layerId = m004;
shapes = (
{
closed = 1;
nodes = (
(113,681,l),
(137,671,l),
(-2,313,l),
(104,0,l),
(506,0,l),
(576,247,l),
(552,527,l),
(446,604,l),
(473,615,l),
(486,633,l),
(104,706,l)
);
},
{
closed = 1;
nodes = (
(441,136,l),
(325,85,l),
(236,681,l),
(347,659,l)
);
}
);
width = 600;
}
);
unicode = (85,117);
},
{
glyphname = V;
lastChange = "2025-10-03 16:06:16 +0000";
layers = (
{
layerId = m01;
shapes = (
{
closed = 1;
nodes = (
(124,679,l),
(147,665,l),
(-2,313,l),
(224,0,l),
(576,247,l),
(446,609,l),
(468,609,l),
(477,629,l),
(121,700,l)
);
},
{
closed = 1;
nodes = (
(174,133,l),
(174,133,l),
(235,677,l),
(339,657,l)
);
}
);
width = 600;
},
{
layerId = m002;
shapes = (
{
closed = 1;
nodes = (
(64,349,l),
(87,335,l),
(28,153,l),
(224,0,l),
(376,127,l),
(386,279,l),
(408,279,l),
(417,299,l),
(61,370,l)
);
},
{
closed = 1;
nodes = (
(174,133,l),
(174,133,l),
(175,347,l),
(279,327,l)
);
}
);
width = 600;
},
{
layerId = m003;
shapes = (
{
closed = 1;
nodes = (
(124,259,l),
(147,245,l),
(88,143,l),
(224,0,l),
(430,105,l),
(446,189,l),
(468,189,l),
(477,209,l),
(121,280,l)
);
},
{
closed = 1;
nodes = (
(367,73,l),
(322,50,l),
(235,257,l),
(339,237,l)
);
}
);
width = 600;
},
{
layerId = m004;
shapes = (
{
closed = 1;
nodes = (
(124,679,l),
(147,665,l),
(-2,313,l),
(224,0,l),
(576,247,l),
(446,609,l),
(468,609,l),
(477,629,l),
(121,700,l)
);
},
{
closed = 1;
nodes = (
(400,124,l),
(348,87,l),
(235,677,l),
(339,657,l)
);
}
);
width = 600;
}
);
unicode = (86,118);
},
{
glyphname = W;
lastChange = "2025-10-03 16:06:16 +0000";
layers = (
{
layerId = m01;
shapes = (
{
closed = 1;
nodes = (
(592,239,l),
(529,576,l),
(572,586,l),
(592,616,l),
(121,700,l),
(124,679,l),
(147,665,l),
(-2,313,l),
(40,0,l),
(147,0,l),
(278,239,l),
(267,0,l),
(441,0,l)
);
},
{
closed = 1;
nodes = (
(147,258,l),
(147,258,l),
(238,679,l),
(336,662,l)
);
},
{
closed = 1;
nodes = (
(355,158,l),
(355,158,l),
(407,649,l),
(515,629,l)
);
}
);
width = 600;
},
{
layerId = m002;
shapes = (
{
closed = 1;
nodes = (
(532,136,l),
(489,246,l),
(532,256,l),
(552,286,l),
(81,370,l),
(84,349,l),
(107,335,l),
(2,173,l),
(40,0,l),
(147,0,l),
(278,119,l),
(267,0,l),
(441,0,l)
);
},
{
closed = 1;
nodes = (
(147,138,l),
(147,138,l),
(198,349,l),
(296,332,l)
);
},
{
closed = 1;
nodes = (
(355,38,l),
(355,38,l),
(367,319,l),
(475,299,l)
);
}
);
width = 600;
},
{
layerId = m003;
shapes = (
{
closed = 1;
nodes = (
(542,89,l),
(473,256,l),
(519,266,l),
(532,286,l),
(20,369,l),
(23,348,l),
(46,334,l),
(-2,153,l),
(40,0,l),
(221,0,l),
(237,117,l),
(267,0,l),
(441,0,l)
);
},
{
closed = 1;
nodes = (
(193,0,l),
(159,0,l),
(149,348,l),
(191,341,l)
);
},
{
closed = 1;
nodes = (
(416,0,l),
(338,0,l),
(327,320,l),
(360,314,l)
);
}
);
width = 600;
},
{
layerId = m004;
shapes = (
{
closed = 1;
nodes = (
(592,239,l),
(529,576,l),
(572,586,l),
(592,616,l),
(30,699,l),
(33,678,l),
(56,664,l),
(-2,313,l),
(40,0,l),
(221,0,l),
(247,367,l),
(267,0,l),
(441,0,l)
);
},
{
closed = 1;
nodes = (
(193,0,l),
(114,0,l),
(163,680,l),
(205,673,l)
);
},
{
closed = 1;
nodes = (
(416,0,l),
(338,0,l),
(338,654,l),
(371,648,l)
);
}
);
width = 600;
}
);
unicode = (87,119);
},
{
glyphname = X;
lastChange = "2025-10-03 16:06:16 +0000";
layers = (
{
layerId = m01;
shapes = (
{
closed = 1;
nodes = (
(86,0,l),
(0,0,l),
(4,21,l),
(50,32,l),
(142,196,l),
(92,642,l),
(63,664,l),
(56,700,l),
(214,633,l),
(226,149,l),
(178,0,l)
);
},
{
closed = 1;
nodes = (
(226,149,l),
(345,582,l),
(516,504,l),
(508,481,l),
(478,483,l),
(427,256,l),
(540,37,l),
(597,26,l),
(601,5,l),
(362,5,l)
);
}
);
width = 600;
},
{
layerId = m002;
shapes = (
{
closed = 1;
nodes = (
(86,0,l),
(0,0,l),
(4,21,l),
(50,32,l),
(142,176,l),
(112,312,l),
(83,334,l),
(76,370,l),
(234,303,l),
(226,129,l),
(178,0,l)
);
},
{
closed = 1;
nodes = (
(226,129,l),
(305,312,l),
(489,228,l),
(479,211,l),
(447,211,l),
(349,134,l),
(489,31,l),
(518,23,l),
(525,4,l),
(362,5,l)
);
}
);
width = 600;
},
{
layerId = m003;
shapes = (
{
closed = 1;
nodes = (
(86,0,l),
(20,0,l),
(24,21,l),
(77,32,l),
(189,104,l),
(122,232,l),
(93,253,l),
(86,280,l),
(285,216,l),
(352,71,l),
(311,0,l)
);
},
{
closed = 1;
nodes = (
(352,71,l),
(326,261,l),
(531,231,l),
(508,211,l),
(478,213,l),
(406,92,l),
(520,30,l),
(547,26,l),
(554,0,l),
(380,1,l)
);
}
);
width = 600;
},
{
layerId = m004;
shapes = (
{
closed = 1;
nodes = (
(86,0,l),
(0,0,l),
(4,21,l),
(50,32,l),
(142,370,l),
(92,642,l),
(63,664,l),
(56,700,l),
(255,616,l),
(352,283,l),
(311,0,l)
);
},
{
closed = 1;
nodes = (
(352,283,l),
(326,591,l),
(516,504,l),
(508,481,l),
(478,483,l),
(406,372,l),
(540,37,l),
(597,26,l),
(601,5,l),
(427,11,l)
);
}
);
width = 600;
}
);
unicode = (88,120);
},
{
glyphname = Y;
lastChange = "2025-10-03 16:06:16 +0000";
layers = (
{
layerId = m01;
shapes = (
{
closed = 1;
nodes = (
(124,679,l),
(147,665,l),
(18,403,l),
(306,163,l),
(396,449,l),
(446,609,l),
(468,609,l),
(477,629,l),
(121,700,l)
);
},
{
closed = 1;
nodes = (
(199,258,l),
(199,258,l),
(235,677,l),
(339,657,l)
);
},
{
closed = 1;
nodes = (
(227,230,l),
(61,0,l),
(314,0,l),
(306,163,l)
);
}
);
width = 600;
},
{
layerId = m002;
shapes = (
{
closed = 1;
nodes = (
(124,349,l),
(147,335,l),
(78,163,l),
(306,43,l),
(367,146,l),
(446,279,l),
(468,279,l),
(477,299,l),
(121,370,l)
);
},
{
closed = 1;
nodes = (
(213,170,l),
(213,170,l),
(235,347,l),
(339,327,l)
);
},
{
closed = 1;
nodes = (
(212,93,l),
(61,0,l),
(274,0,l),
(306,43,l)
);
}
);
width = 600;
},
{
layerId = m003;
shapes = (
{
closed = 1;
nodes = (
(124,339,l),
(147,325,l),
(147,201,l),
(349,89,l),
(477,161,l),
(446,369,l),
(468,369,l),
(477,389,l),
(121,360,l)
);
},
{
closed = 1;
nodes = (
(445,143,l),
(398,116,l),
(338,378,l),
(372,381,l)
);
},
{
closed = 1;
nodes = (
(290,122,l),
(215,0,l),
(401,0,l),
(350,89,l)
);
}
);
width = 600;
},
{
layerId = m004;
shapes = (
{
closed = 1;
nodes = (
(124,679,l),
(147,665,l),
(18,403,l),
(306,163,l),
(489,371,l),
(446,609,l),
(468,609,l),
(477,629,l),
(121,700,l)
);
},
{
closed = 1;
nodes = (
(423,296,l),
(386,253,l),
(235,677,l),
(339,657,l)
);
},
{
closed = 1;
nodes = (
(175,277,l),
(61,0,l),
(401,0,l),
(306,163,l)
);
}
);
width = 600;
}
);
unicode = (89,121);
},
{
glyphname = Z;
lastChange = "2025-10-03 16:06:16 +0000";
layers = (
{
layerId = m01;
shapes = (
{
closed = 1;
nodes = (
(-3,325,l),
(481,609,l),
(478,609,l),
(-3,233,l),
(-3,26,l),
(117,5,l),
(448,1,l),
(597,106,l),
(542,258,l),
(352,193,l),
(352,193,l),
(561,381,l),
(592,663,l),
(88,700,l),
(-2,654,l)
);
}
);
width = 600;
},
{
layerId = m002;
shapes = (
{
closed = 1;
nodes = (
(135,176,l),
(379,261,l),
(378,261,l),
(135,126,l),
(135,14,l),
(200,3,l),
(379,1,l),
(459,58,l),
(429,140,l),
(278,61,l),
(278,61,l),
(440,206,l),
(436,338,l),
(164,358,l),
(116,334,l)
);
}
);
width = 600;
},
{
layerId = m003;
shapes = (
{
closed = 1;
nodes = (
(112,174,l),
(486,207,l),
(480,172,l),
(111,122,l),
(86,62,l),
(204,3,l),
(379,1,l),
(542,59,l),
(530,122,l),
(100,95,l),
(105,108,l),
(475,144,l),
(495,260,l),
(189,280,l),
(132,255,l)
);
}
);
width = 600;
},
{
layerId = m004;
shapes = (
{
closed = 1;
nodes = (
(8,500,l),
(584,592,l),
(582,552,l),
(7,231,l),
(7,60,l),
(117,5,l),
(448,1,l),
(597,106,l),
(542,258,l),
(7,159,l),
(7,176,l),
(555,329,l),
(592,663,l),
(88,700,l),
(8,654,l)
);
}
);
width = 600;
}
);
unicode = (90,122);
},
{
glyphname = zero;
lastChange = "2024-03-08 17:42:58 +0000";
layers = (
{
layerId = m01;
shapes = (
{
closed = 1;
nodes = (
(-2,499,l),
(-1,139,l),
(192,3,l),
(596,81,l),
(594,504,l),
(525,623,l),
(138,699,l)
);
},
{
closed = 1;
nodes = (
(259,151,l),
(169,143,l),
(298,532,l),
(377,504,l)
);
}
);
width = 600;
},
{
layerId = m002;
shapes = (
{
closed = 1;
nodes = (
(58,289,l),
(59,139,l),
(192,3,l),
(526,81,l),
(524,294,l),
(432,363,l),
(199,413,l)
);
},
{
closed = 1;
nodes = (
(284,99,l),
(211,99,l),
(298,322,l),
(377,294,l)
);
}
);
width = 600;
},
{
layerId = m003;
shapes = (
{
closed = 1;
nodes = (
(48,309,l),
(49,139,l),
(192,3,l),
(435,25,l),
(446,246,l),
(319,399,l),
(110,433,l)
);
},
{
closed = 1;
nodes = (
(370,110,l),
(324,75,l),
(170,253,l),
(285,314,l)
);
}
);
width = 600;
},
{
layerId = m004;
shapes = (
{
closed = 1;
nodes = (
(-2,499,l),
(-1,139,l),
(192,3,l),
(596,81,l),
(594,504,l),
(386,632,l),
(110,623,l)
);
},
{
closed = 1;
nodes = (
(456,140,l),
(386,97,l),
(170,443,l),
(285,504,l)
);
}
);
width = 600;
}
);
unicode = 48;
},
{
glyphname = one;
lastChange = "2024-03-08 17:48:10 +0000";
layers = (
{
layerId = m01;
shapes = (
{
closed = 1;
nodes = (
(132,39,l),
(192,653,l),
(57,565,l),
(57,618,l),
(111,683,l),
(417,570,l),
(408,545,l),
(384,541,l),
(267,39,l),
(315,25,l),
(324,0,l),
(65,0,l),
(78,25,l)
);
}
);
width = 600;
},
{
layerId = m002;
shapes = (
{
closed = 1;
nodes = (
(132,39,l),
(181,326,l),
(57,255,l),
(57,308,l),
(111,370,l),
(317,260,l),
(308,235,l),
(284,231,l),
(267,39,l),
(315,25,l),
(324,0,l),
(65,0,l),
(78,25,l)
);
}
);
width = 600;
},
{
layerId = m003;
shapes = (
{
closed = 1;
nodes = (
(352,39,l),
(227,213,l),
(145,178,l),
(103,256,l),
(153,285,l),
(457,285,l),
(448,260,l),
(424,256,l),
(487,39,l),
(535,25,l),
(544,0,l),
(285,0,l),
(298,25,l)
);
}
);
width = 600;
},
{
layerId = m004;
shapes = (
{
closed = 1;
nodes = (
(122,39,l),
(280,611,l),
(204,411,l),
(37,532,l),
(113,676,l),
(447,700,l),
(453,669,l),
(424,641,l),
(487,39,l),
(535,25,l),
(544,0,l),
(55,0,l),
(68,25,l)
);
}
);
width = 600;
}
);
unicode = 49;
},
{
glyphname = two;
lastChange = "2024-03-15 03:23:31 +0000";
layers = (
{
layerId = m01;
shapes = (
{
closed = 1;
nodes = (
(27,325,l),
(480,575,l),
(477,575,l),
(9,165,l),
(2,13,l),
(117,5,l),
(504,1,l),
(597,106,l),
(530,231,l),
(352,193,l),
(352,193,l),
(592,381,l),
(524,631,l),
(386,700,l),
(28,654,l)
);
}
);
width = 600;
},
{
layerId = m002;
shapes = (
{
closed = 1;
nodes = (
(147,201,l),
(379,247,l),
(376,247,l),
(123,125,l),
(105,0,l),
(105,0,l),
(504,1,l),
(581,46,l),
(517,138,l),
(339,100,l),
(339,100,l),
(531,206,l),
(514,337,l),
(376,406,l),
(158,334,l)
);
}
);
width = 600;
},
{
layerId = m003;
shapes = (
{
closed = 1;
nodes = (
(112,174,l),
(486,207,l),
(482,184,l),
(111,122,l),
(86,62,l),
(204,3,l),
(379,1,l),
(475,0,l),
(475,79,l),
(100,95,l),
(105,108,l),
(475,144,l),
(495,260,l),
(189,280,l),
(132,255,l)
);
}
);
width = 600;
},
{
layerId = m004;
shapes = (
{
closed = 1;
nodes = (
(8,500,l),
(295,500,l),
(295,500,l),
(305,416,l),
(7,60,l),
(117,5,l),
(448,1,l),
(599,44,l),
(567,189,l),
(374,125,l),
(374,142,l),
(503,335,l),
(531,585,l),
(88,700,l),
(8,654,l)
);
}
);
width = 600;
}
);
unicode = 50;
},
{
glyphname = three;
lastChange = "2024-03-15 22:44:02 +0000";
layers = (
{
layerId = m01;
shapes = (
{
closed = 1;
nodes = (
(490,274,l),
(596,408,l),
(596,629,l),
(236,700,l),
(28,525,l),
(122,363,l),
(420,432,l),
(420,432,l),
(182,295,l),
(182,225,l),
(338,131,l),
(338,131,l),
(79,101,l),
(118,-1,l),
(524,5,l),
(599,185,l)
);
}
);
width = 600;
},
{
layerId = m002;
shapes = (
{
closed = 1;
nodes = (
(490,167,l),
(582,240,l),
(559,338,l),
(379,370,l),
(145,302,l),
(145,224,l),
(391,195,l),
(391,195,l),
(182,167,l),
(182,107,l),
(338,81,l),
(338,81,l),
(79,51,l),
(118,-1,l),
(524,5,l),
(599,135,l)
);
}
);
width = 600;
},
{
layerId = m003;
shapes = (
{
closed = 1;
nodes = (
(413,113,l),
(549,204,l),
(544,237,l),
(488,280,l),
(184,260,l),
(188,200,l),
(547,218,l),
(548,211,l),
(163,129,l),
(183,89,l),
(413,113,l),
(436,105,l),
(99,51,l),
(118,-1,l),
(524,5,l),
(569,56,l)
);
}
);
width = 600;
},
{
layerId = m004;
shapes = (
{
closed = 1;
nodes = (
(433,283,l),
(569,344,l),
(597,565,l),
(438,700,l),
(4,602,l),
(98,440,l),
(536,617,l),
(557,599,l),
(103,319,l),
(103,249,l),
(438,279,l),
(466,253,l),
(79,101,l),
(118,-1,l),
(524,5,l),
(599,136,l)
);
}
);
width = 600;
}
);
unicode = 51;
},
{
glyphname = four;
lastChange = "2024-03-15 03:22:05 +0000";
layers = (
{
layerId = m01;
shapes = (
{
closed = 1;
nodes = (
(596,281,l),
(571,185,l),
(421,185,l),
(378,52,l),
(440,32,l),
(457,-3,l),
(151,-5,l),
(157,23,l),
(233,53,l),
(287,209,l),
(34,234,l),
(7,323,l),
(161,697,l),
(330,700,l),
(225,348,l),
(225,348,l),
(374,568,l),
(510,547,l),
(450,308,l)
);
}
);
width = 600;
},
{
layerId = m002;
shapes = (
{
closed = 1;
nodes = (
(516,181,l),
(501,125,l),
(401,125,l),
(378,52,l),
(440,32,l),
(457,-3,l),
(151,-5,l),
(157,23,l),
(243,43,l),
(268,116,l),
(115,161,l),
(92,234,l),
(175,386,l),
(260,373,l),
(233,216,l),
(301,204,l),
(354,321,l),
(450,307,l),
(420,208,l)
);
}
);
width = 600;
},
{
layerId = m003;
shapes = (
{
closed = 1;
nodes = (
(461,206,l),
(451,125,l),
(361,125,l),
(368,52,l),
(440,32,l),
(457,-3,l),
(151,-5,l),
(157,23,l),
(245,43,l),
(258,116,l),
(108,109,l),
(52,180,l),
(77,340,l),
(167,373,l),
(183,164,l),
(267,180,l),
(261,377,l),
(330,400,l),
(365,194,l)
);
}
);
width = 600;
},
{
layerId = m004;
shapes = (
{
closed = 1;
nodes = (
(538,417,l),
(568,266,l),
(412,247,l),
(448,52,l),
(520,32,l),
(537,-3,l),
(231,-5,l),
(237,23,l),
(325,43,l),
(286,235,l),
(108,229,l),
(2,330,l),
(19,654,l),
(167,674,l),
(243,375,l),
(267,380,l),
(234,681,l),
(345,690,l),
(395,384,l)
);
}
);
width = 600;
}
);
unicode = 52;
},
{
glyphname = five;
lastChange = "2024-03-15 03:36:14 +0000";
layers = (
{
layerId = m01;
shapes = (
{
closed = 1;
nodes = (
(208,543,l),
(208,543,l),
(229,551,l),
(471,643,l),
(468,500,l),
(218,411,l),
(221,411,l),
(600,368,l),
(601,107,l),
(481,4,l),
(150,0,l),
(1,105,l),
(56,257,l),
(466,148,l),
(466,148,l),
(37,380,l),
(88,711,l),
(269,714,l)
);
}
);
width = 600;
},
{
layerId = m002;
shapes = (
{
closed = 1;
nodes = (
(208,263,l),
(208,263,l),
(235,267,l),
(471,303,l),
(518,210,l),
(308,201,l),
(311,201,l),
(560,138,l),
(561,67,l),
(481,4,l),
(150,0,l),
(51,65,l),
(86,137,l),
(376,78,l),
(376,78,l),
(87,190,l),
(117,369,l),
(238,372,l)
);
}
);
width = 600;
},
{
layerId = m003;
shapes = (
{
closed = 1;
nodes = (
(213,198,l),
(223,198,l),
(249,203,l),
(518,260,l),
(550,205,l),
(92,195,l),
(85,177,l),
(542,156,l),
(551,87,l),
(481,4,l),
(150,0,l),
(1,33,l),
(46,87,l),
(501,28,l),
(517,46,l),
(77,160,l),
(128,278,l),
(219,281,l)
);
}
);
width = 600;
},
{
layerId = m004;
shapes = (
{
closed = 1;
nodes = (
(175,441,l),
(288,461,l),
(267,527,l),
(467,646,l),
(600,515,l),
(43,418,l),
(40,401,l),
(590,368,l),
(591,107,l),
(481,4,l),
(150,0,l),
(1,105,l),
(56,257,l),
(591,107,l),
(591,153,l),
(37,380,l),
(88,711,l),
(175,712,l)
);
}
);
width = 600;
}
);
unicode = 53;
},
{
glyphname = six;
lastChange = "2024-03-15 22:54:00 +0000";
layers = (
{
layerId = m01;
shapes = (
{
closed = 1;
nodes = (
(220,374,l),
(336,444,l),
(474,432,l),
(582,262,l),
(571,107,l),
(411,4,l),
(197,1,l),
(70,65,l),
(1,296,l),
(181,703,l),
(356,700,l)
);
},
{
closed = 1;
nodes = (
(220,24,l),
(221,25,l),
(432,329,l),
(388,374,l)
);
}
);
width = 600;
},
{
layerId = m002;
shapes = (
{
closed = 1;
nodes = (
(230,214,l),
(366,234,l),
(444,222,l),
(506,149,l),
(501,107,l),
(411,4,l),
(197,1,l),
(70,65,l),
(41,176,l),
(181,353,l),
(346,370,l)
);
},
{
closed = 1;
nodes = (
(345,38,l),
(346,39,l),
(294,154,l),
(254,125,l)
);
}
);
width = 600;
},
{
layerId = m003;
shapes = (
{
closed = 1;
nodes = (
(230,134,l),
(351,185,l),
(462,153,l),
(492,92,l),
(481,47,l),
(411,4,l),
(197,1,l),
(120,75,l),
(111,156,l),
(191,273,l),
(272,252,l)
);
},
{
closed = 1;
nodes = (
(324,3,l),
(374,3,l),
(312,169,l),
(302,165,l)
);
}
);
width = 600;
},
{
layerId = m004;
shapes = (
{
closed = 1;
nodes = (
(220,374,l),
(336,444,l),
(474,432,l),
(582,262,l),
(571,107,l),
(411,4,l),
(197,1,l),
(70,65,l),
(1,296,l),
(181,703,l),
(356,700,l)
);
},
{
closed = 1;
nodes = (
(475,45,l),
(506,65,l),
(321,435,l),
(268,403,l)
);
}
);
width = 600;
}
);
unicode = 54;
},
{
glyphname = seven;
lastChange = "2024-03-15 23:06:57 +0000";
layers = (
{
layerId = m01;
shapes = (
{
closed = 1;
nodes = (
(65,0,l),
(350,0,l),
(333,35,l),
(301,46,l),
(563,416,l),
(563,416,l),
(594,591,l),
(3,700,l),
(35,500,l),
(395,406,l),
(119,51,l),
(71,28,l)
);
}
);
width = 600;
},
{
layerId = m002;
shapes = (
{
closed = 1;
nodes = (
(145,0,l),
(350,0,l),
(338,20,l),
(301,26,l),
(474,192,l),
(474,192,l),
(494,321,l),
(115,370,l),
(123,243,l),
(311,243,l),
(199,31,l),
(152,22,l)
);
}
);
width = 600;
},
{
layerId = m003;
shapes = (
{
closed = 1;
nodes = (
(155,0,l),
(465,0,l),
(448,35,l),
(401,41,l),
(551,195,l),
(553,210,l),
(536,314,l),
(143,280,l),
(161,153,l),
(384,243,l),
(213,41,l),
(161,28,l)
);
}
);
width = 600;
},
{
layerId = m004;
shapes = (
{
closed = 1;
nodes = (
(65,0,l),
(465,0,l),
(448,35,l),
(401,41,l),
(591,485,l),
(593,500,l),
(576,664,l),
(3,700,l),
(21,443,l),
(346,557,l),
(123,41,l),
(71,28,l)
);
}
);
width = 600;
}
);
unicode = 55;
},
{
glyphname = eight;
lastChange = "2024-03-16 00:45:33 +0000";
layers = (
{
layerId = m01;
shapes = (
{
closed = 1;
nodes = (
(48,525,l),
(187,362,l),
(-3,278,l),
(2,136,l),
(136,0,l),
(470,0,l),
(599,83,l),
(547,351,l),
(432,371,l),
(303,313,l),
(510,407,l),
(524,468,l),
(541,581,l),
(390,700,l),
(109,640,l)
);
},
{
closed = 1;
nodes = (
(446,546,l),
(338,390,l),
(337,388,l),
(376,567,l)
);
},
{
closed = 1;
nodes = (
(488,272,l),
(318,90,l),
(316,88,l),
(376,317,l)
);
}
);
width = 600;
},
{
layerId = m002;
shapes = (
{
closed = 1;
nodes = (
(158,185,l),
(227,152,l),
(107,138,l),
(85,60,l),
(136,0,l),
(470,0,l),
(539,53,l),
(517,131,l),
(469,172,l),
(313,123,l),
(469,172,l),
(504,258,l),
(441,351,l),
(300,370,l),
(169,290,l)
);
},
{
closed = 1;
nodes = (
(366,221,l),
(316,190,l),
(315,189,l),
(342,258,l)
);
},
{
closed = 1;
nodes = (
(396,104,l),
(321,19,l),
(319,17,l),
(357,118,l)
);
}
);
width = 600;
},
{
layerId = m003;
shapes = (
{
closed = 1;
nodes = (
(178,215,l),
(217,182,l),
(117,138,l),
(102,86,l),
(136,0,l),
(470,0,l),
(489,93,l),
(348,135,l),
(418,112,l),
(482,148,l),
(491,174,l),
(499,207,l),
(470,258,l),
(390,280,l),
(209,260,l)
);
},
{
closed = 1;
nodes = (
(355,277,l),
(458,133,l),
(441,125,l),
(334,274,l)
);
},
{
closed = 1;
nodes = (
(394,122,l),
(343,0,l),
(313,0,l),
(355,133,l)
);
}
);
width = 600;
},
{
layerId = m004;
shapes = (
{
closed = 1;
nodes = (
(48,525,l),
(187,362,l),
(-3,278,l),
(2,136,l),
(136,0,l),
(470,0,l),
(599,83,l),
(547,351,l),
(432,371,l),
(303,313,l),
(510,407,l),
(524,468,l),
(541,581,l),
(390,700,l),
(109,640,l)
);
},
{
closed = 1;
nodes = (
(272,675,l),
(428,369,l),
(408,360,l),
(227,665,l)
);
},
{
closed = 1;
nodes = (
(500,359,l),
(343,0,l),
(241,0,l),
(482,363,l)
);
}
);
width = 600;
}
);
unicode = 56;
},
{
glyphname = nine;
lastChange = "2024-03-16 00:48:55 +0000";
layers = (
{
layerId = m01;
shapes = (
{
closed = 1;
nodes = (
(371,329,l),
(255,259,l),
(117,271,l),
(9,441,l),
(20,596,l),
(180,699,l),
(394,702,l),
(521,638,l),
(590,407,l),
(410,0,l),
(235,3,l)
);
},
{
closed = 1;
nodes = (
(171,288,l),
(172,290,l),
(295,545,l),
(225,566,l)
);
}
);
width = 600;
},
{
layerId = m002;
shapes = (
{
closed = 1;
nodes = (
(326,139,l),
(277,122,l),
(184,139,l),
(151,226,l),
(156,305,l),
(238,369,l),
(348,371,l),
(413,327,l),
(438,178,l),
(356,0,l),
(266,2,l)
);
},
{
closed = 1;
nodes = (
(266,171,l),
(266,172,l),
(238,295,l),
(208,303,l)
);
}
);
width = 600;
},
{
layerId = m003;
shapes = (
{
closed = 1;
nodes = (
(335,106,l),
(274,68,l),
(200,75,l),
(143,165,l),
(149,227,l),
(234,279,l),
(347,281,l),
(415,250,l),
(446,147,l),
(356,0,l),
(263,2,l)
);
},
{
closed = 1;
nodes = (
(209,75,l),
(227,75,l),
(219,272,l),
(190,254,l)
);
}
);
width = 600;
},
{
layerId = m004;
shapes = (
{
closed = 1;
nodes = (
(371,329,l),
(255,259,l),
(117,271,l),
(9,441,l),
(20,596,l),
(180,699,l),
(394,702,l),
(521,638,l),
(590,407,l),
(410,0,l),
(235,3,l)
);
},
{
closed = 1;
nodes = (
(167,267,l),
(210,263,l),
(121,661,l),
(54,618,l)
);
}
);
width = 600;
}
);
unicode = 57;
},
